<svg xmlns="http://www.w3.org/2000/svg" width="960" height="540" viewBox="0 0 960 540" role="img"><style>
      .bg{fill:#07131c}.panel{fill:#0b1a24;stroke:#294252}.line{stroke:#31505f;fill:none}
      .grid{stroke:#213946;fill:none}.accent{stroke:#53a9c9;fill:none}.ok{stroke:#55b58d;fill:none}
      .warn{stroke:#d2a24f;fill:none}.txt{fill:#cbd8df;font:14px 'DejaVu Sans',sans-serif}
      .small{fill:#80939f;font:12px 'DejaVu Sans',sans-serif}.tiny{fill:#687d89;font:10px 'DejaVu Sans Mono',monospace}
      .title{fill:#e3edf1;font:600 20px 'DejaVu Sans',sans-serif}.value{fill:#a9d9e9;font:600 14px 'DejaVu Sans Mono',monospace}
      .unknown{fill:#8999a2;font:13px 'DejaVu Sans',sans-serif}.dot{fill:#58adca;stroke:#b9e3f0;stroke-width:1}
    </style><rect width="960" height="540" class="bg"/>
      <text x="32" y="42" class="title">电磁频谱监测</text>
      <text x="928" y="42" text-anchor="end" class="tiny">PLANNED INPUT · A3/A4/A5 · M02/M09/M10/M11/M13/M14 · TRACE REQUIRED</text>
      <text x="32" y="66" class="small">来源平台  ESCORT-01</text>
      <text x="300" y="66" class="small">传感器  ELINT</text>
      <text x="610" y="66" class="small">采集时刻  T+3600.0s</text>
      <text x="790" y="66" class="small">快照  T+3600.0s</text>
      <line x1="32" y1="82" x2="928" y2="82" class="line"/>
    
      <rect x="32" y="102" width="896" height="406" rx="4" class="panel"/>
      <rect x="80" y="130" width="690" height="218" fill="#081721" stroke="#31505f"/>
      <line x1="80.0" y1="130" x2="80.0" y2="348" class="grid"/><line x1="252.5" y1="130" x2="252.5" y2="348" class="grid"/><line x1="425.0" y1="130" x2="425.0" y2="348" class="grid"/><line x1="597.5" y1="130" x2="597.5" y2="348" class="grid"/><line x1="770.0" y1="130" x2="770.0" y2="348" class="grid"/><line x1="80" y1="130.0" x2="770" y2="130.0" class="grid"/><line x1="80" y1="184.5" x2="770" y2="184.5" class="grid"/><line x1="80" y1="239.0" x2="770" y2="239.0" class="grid"/><line x1="80" y1="293.5" x2="770" y2="293.5" class="grid"/><line x1="80" y1="348.0" x2="770" y2="348.0" class="grid"/><text x="80.0" y="366" text-anchor="middle" class="tiny">2198</text><text x="252.5" y="366" text-anchor="middle" class="tiny">3112</text><text x="425.0" y="366" text-anchor="middle" class="tiny">4025</text><text x="597.5" y="366" text-anchor="middle" class="tiny">4939</text><text x="770.0" y="366" text-anchor="middle" class="tiny">5852</text><text x="72" y="134.0" text-anchor="end" class="tiny">T+3420</text><text x="72" y="188.5" text-anchor="end" class="tiny">T+3465</text><text x="72" y="243.0" text-anchor="end" class="tiny">T+3510</text><text x="72" y="297.5" text-anchor="end" class="tiny">T+3555</text><text x="72" y="352.0" text-anchor="end" class="tiny">T+3600</text>
      <rect x="717.4" y="121.4" width="10" height="17.1" rx="1" fill="#c5b05a" stroke="#b9e3f0" stroke-opacity="0.35"><title>5600.04 MHz / -59.6 dBm / T+3420.0s</title></rect><rect x="122.6" y="121.4" width="10" height="17.1" rx="1" fill="#1e5a72" stroke="#b9e3f0" stroke-opacity="0.35"><title>2450.11 MHz / -69.3 dBm / T+3420.0s</title></rect><rect x="717.4" y="157.8" width="10" height="17.1" rx="1" fill="#c1b05d" stroke="#b9e3f0" stroke-opacity="0.35"><title>5599.99 MHz / -59.7 dBm / T+3450.0s</title></rect><rect x="122.6" y="157.8" width="10" height="17.1" rx="1" fill="#1d5269" stroke="#b9e3f0" stroke-opacity="0.35"><title>2450.03 MHz / -69.9 dBm / T+3450.0s</title></rect><rect x="717.4" y="194.1" width="10" height="17.1" rx="1" fill="#78af83" stroke="#b9e3f0" stroke-opacity="0.35"><title>5600.09 MHz / -61.6 dBm / T+3480.0s</title></rect><rect x="122.6" y="194.1" width="10" height="17.1" rx="1" fill="#1d495e" stroke="#b9e3f0" stroke-opacity="0.35"><title>2450.10 MHz / -70.7 dBm / T+3480.0s</title></rect><rect x="717.4" y="230.4" width="10" height="17.1" rx="1" fill="#9faf6e" stroke="#b9e3f0" stroke-opacity="0.35"><title>5599.96 MHz / -60.6 dBm / T+3510.0s</title></rect><rect x="122.6" y="230.4" width="10" height="17.1" rx="1" fill="#1e5d76" stroke="#b9e3f0" stroke-opacity="0.35"><title>2449.99 MHz / -69.0 dBm / T+3510.0s</title></rect><rect x="717.4" y="266.8" width="10" height="17.1" rx="1" fill="#cdb056" stroke="#b9e3f0" stroke-opacity="0.35"><title>5600.23 MHz / -59.4 dBm / T+3540.0s</title></rect><rect x="122.6" y="266.8" width="10" height="17.1" rx="1" fill="#1d4e64" stroke="#b9e3f0" stroke-opacity="0.35"><title>2450.00 MHz / -70.3 dBm / T+3540.0s</title></rect><rect x="717.4" y="303.1" width="10" height="17.1" rx="1" fill="#e0b04c" stroke="#b9e3f0" stroke-opacity="0.35"><title>5600.08 MHz / -58.9 dBm / T+3570.0s</title></rect><rect x="122.6" y="303.1" width="10" height="17.1" rx="1" fill="#1c3a4d" stroke="#b9e3f0" stroke-opacity="0.35"><title>2450.07 MHz / -72.0 dBm / T+3570.0s</title></rect><rect x="717.4" y="339.4" width="10" height="17.1" rx="1" fill="#b7af62" stroke="#b9e3f0" stroke-opacity="0.35"><title>5600.08 MHz / -60.0 dBm / T+3600.0s</title></rect><rect x="122.6" y="339.4" width="10" height="17.1" rx="1" fill="#1c4257" stroke="#b9e3f0" stroke-opacity="0.35"><title>2450.07 MHz / -71.3 dBm / T+3600.0s</title></rect>
      
      <text x="425" y="374" text-anchor="middle" class="tiny">频率 / MHz · 仅绘制实测频点</text>
      <text x="80" y="395" class="small">测向随时间变化</text>
      <rect x="80" y="402" width="690" height="58" fill="#081721" stroke="#31505f"/>
      <line x1="80" y1="431" x2="770" y2="431" class="grid"/><polyline points="80.0,453.5 80.0,410.1 195.0,453.6 195.0,409.3 310.0,453.7 310.0,408.6 425.0,453.7 425.0,408.0 540.0,453.8 540.0,407.3 655.0,453.9 655.0,406.6 770.0,454.0 770.0,406.0" class="accent" stroke-width="1.5"/>
      
      <text x="88" y="476" class="tiny">方位范围 147.0°–262.6° · 发射源类别需后端判定</text>
      <text x="790" y="142" class="small">观测窗口</text><text x="790" y="164" class="value">T+3420s–T+3600s</text>
      <text x="790" y="198" class="small">采样时刻 / 频点</text><text x="790" y="220" class="value">7 / 14</text>
      <text x="790" y="254" class="small">最强测量</text>
      <text x="790" y="276" class="value">5600.1 MHz</text>
      <text x="790" y="298" class="tiny">-58.9 dBm</text>
      <text x="790" y="320" class="small">接收功率</text>
      <rect x="790" y="330" width="11" height="12" fill="#1c3a4d"/><rect x="801" y="330" width="11" height="12" fill="#1d4b61"/><rect x="812" y="330" width="11" height="12" fill="#1e5c74"/><rect x="823" y="330" width="11" height="12" fill="#1f6c88"/><rect x="834" y="330" width="11" height="12" fill="#2b8090"/><rect x="845" y="330" width="11" height="12" fill="#389495"/><rect x="856" y="330" width="11" height="12" fill="#46a89a"/><rect x="867" y="330" width="11" height="12" fill="#71af87"/><rect x="878" y="330" width="11" height="12" fill="#a8af6a"/><rect x="889" y="330" width="11" height="12" fill="#e0b04c"/>
      <text x="790" y="358" class="tiny">低</text><text x="895" y="358" class="tiny">高</text>
      <text x="790" y="378" class="small">当前测向 / 距离</text><text x="790" y="390" class="tiny">5600.1 MHz · 147.0° · 12.5 NM</text><text x="790" y="410" class="tiny">2450.1 MHz · 262.6° · 19.6 NM</text>
      <text x="56" y="498" class="small">测量频率  2450.0–5600.2 MHz</text>
      <text x="300" y="498" class="small">配置频段  500.0–8000.0 MHz</text>
      <text x="550" y="498" class="small">功率范围  -72.0–-58.9 dBm</text>
      <text x="830" y="498" class="small">记录  14</text>
    <text x="928" y="526" text-anchor="end" class="tiny">AMOS CURRENT-STATE PRODUCT · MAR-CAPTURE-05</text></svg>